<svg class="rich-terminal" viewBox="0 0 1482 928.4" xmlns="http://www.w3.org/2000/svg">
    <!-- Generated with Rich https://www.textualize.io -->
    <style>

    @font-face {
        font-family: "Fira Code";
        src: local("FiraCode-Regular"),
                url("https://cdnjs.cloudflare.com/ajax/libs/firacode/6.2.0/woff2/FiraCode-Regular.woff2") format("woff2"),
                url("https://cdnjs.cloudflare.com/ajax/libs/firacode/6.2.0/woff/FiraCode-Regular.woff") format("woff");
        font-style: normal;
        font-weight: 400;
    }
    @font-face {
        font-family: "Fira Code";
        src: local("FiraCode-Bold"),
                url("https://cdnjs.cloudflare.com/ajax/libs/firacode/6.2.0/woff2/FiraCode-Bold.woff2") format("woff2"),
                url("https://cdnjs.cloudflare.com/ajax/libs/firacode/6.2.0/woff/FiraCode-Bold.woff") format("woff");
        font-style: bold;
        font-weight: 700;
    }

    .terminal-1935583991-matrix {
        font-family: Fira Code, monospace;
        font-size: 20px;
        line-height: 24.4px;
        font-variant-east-asian: full-width;
    }

    .terminal-1935583991-title {
        font-size: 18px;
        font-weight: bold;
        font-family: arial;
    }

    .terminal-1935583991-r1 { fill: #c5c8c6 }
.terminal-1935583991-r2 { fill: #e0e0e0 }
.terminal-1935583991-r3 { fill: #a0a3a6 }
.terminal-1935583991-r4 { fill: #c5c6c7 }
.terminal-1935583991-r5 { fill: #0178d4 }
.terminal-1935583991-r6 { fill: #fea62b;font-weight: bold }
.terminal-1935583991-r7 { fill: #a5a5a5;font-style: italic; }
.terminal-1935583991-r8 { fill: #838383 }
.terminal-1935583991-r9 { fill: #7f7f7f }
.terminal-1935583991-r10 { fill: #7a7a7a }
.terminal-1935583991-r11 { fill: #ffffff;font-weight: bold }
.terminal-1935583991-r12 { fill: #e0e0e0;font-weight: bold }
.terminal-1935583991-r13 { fill: #a5a5a5;font-weight: bold;font-style: italic; }
.terminal-1935583991-r14 { fill: #ffa62b;font-weight: bold }
.terminal-1935583991-r15 { fill: #495259 }
    </style>

    <defs>
    <clipPath id="terminal-1935583991-clip-terminal">
      <rect x="0" y="0" width="1463.0" height="877.4" />
    </clipPath>
    <clipPath id="terminal-1935583991-line-0">
    <rect x="0" y="1.5" width="1464" height="24.65"/>
            </clipPath>
<clipPath id="terminal-1935583991-line-1">
    <rect x="0" y="25.9" width="1464" height="24.65"/>
            </clipPath>
<clipPath id="terminal-1935583991-line-2">
    <rect x="0" y="50.3" width="1464" height="24.65"/>
            </clipPath>
<clipPath id="terminal-1935583991-line-3">
    <rect x="0" y="74.7" width="1464" height="24.65"/>
            </clipPath>
<clipPath id="terminal-1935583991-line-4">
    <rect x="0" y="99.1" width="1464" height="24.65"/>
            </clipPath>
<clipPath id="terminal-1935583991-line-5">
    <rect x="0" y="123.5" width="1464" height="24.65"/>
            </clipPath>
<clipPath id="terminal-1935583991-line-6">
    <rect x="0" y="147.9" width="1464" height="24.65"/>
            </clipPath>
<clipPath id="terminal-1935583991-line-7">
    <rect x="0" y="172.3" width="1464" height="24.65"/>
            </clipPath>
<clipPath id="terminal-1935583991-line-8">
    <rect x="0" y="196.7" width="1464" height="24.65"/>
            </clipPath>
<clipPath id="terminal-1935583991-line-9">
    <rect x="0" y="221.1" width="1464" height="24.65"/>
            </clipPath>
<clipPath id="terminal-1935583991-line-10">
    <rect x="0" y="245.5" width="1464" height="24.65"/>
            </clipPath>
<clipPath id="terminal-1935583991-line-11">
    <rect x="0" y="269.9" width="1464" height="24.65"/>
            </clipPath>
<clipPath id="terminal-1935583991-line-12">
    <rect x="0" y="294.3" width="1464" height="24.65"/>
            </clipPath>
<clipPath id="terminal-1935583991-line-13">
    <rect x="0" y="318.7" width="1464" height="24.65"/>
            </clipPath>
<clipPath id="terminal-1935583991-line-14">
    <rect x="0" y="343.1" width="1464" height="24.65"/>
            </clipPath>
<clipPath id="terminal-1935583991-line-15">
    <rect x="0" y="367.5" width="1464" height="24.65"/>
            </clipPath>
<clipPath id="terminal-1935583991-line-16">
    <rect x="0" y="391.9" width="1464" height="24.65"/>
            </clipPath>
<clipPath id="terminal-1935583991-line-17">
    <rect x="0" y="416.3" width="1464" height="24.65"/>
            </clipPath>
<clipPath id="terminal-1935583991-line-18">
    <rect x="0" y="440.7" width="1464" height="24.65"/>
            </clipPath>
<clipPath id="terminal-1935583991-line-19">
    <rect x="0" y="465.1" width="1464" height="24.65"/>
            </clipPath>
<clipPath id="terminal-1935583991-line-20">
    <rect x="0" y="489.5" width="1464" height="24.65"/>
            </clipPath>
<clipPath id="terminal-1935583991-line-21">
    <rect x="0" y="513.9" width="1464" height="24.65"/>
            </clipPath>
<clipPath id="terminal-1935583991-line-22">
    <rect x="0" y="538.3" width="1464" height="24.65"/>
            </clipPath>
<clipPath id="terminal-1935583991-line-23">
    <rect x="0" y="562.7" width="1464" height="24.65"/>
            </clipPath>
<clipPath id="terminal-1935583991-line-24">
    <rect x="0" y="587.1" width="1464" height="24.65"/>
            </clipPath>
<clipPath id="terminal-1935583991-line-25">
    <rect x="0" y="611.5" width="1464" height="24.65"/>
            </clipPath>
<clipPath id="terminal-1935583991-line-26">
    <rect x="0" y="635.9" width="1464" height="24.65"/>
            </clipPath>
<clipPath id="terminal-1935583991-line-27">
    <rect x="0" y="660.3" width="1464" height="24.65"/>
            </clipPath>
<clipPath id="terminal-1935583991-line-28">
    <rect x="0" y="684.7" width="1464" height="24.65"/>
            </clipPath>
<clipPath id="terminal-1935583991-line-29">
    <rect x="0" y="709.1" width="1464" height="24.65"/>
            </clipPath>
<clipPath id="terminal-1935583991-line-30">
    <rect x="0" y="733.5" width="1464" height="24.65"/>
            </clipPath>
<clipPath id="terminal-1935583991-line-31">
    <rect x="0" y="757.9" width="1464" height="24.65"/>
            </clipPath>
<clipPath id="terminal-1935583991-line-32">
    <rect x="0" y="782.3" width="1464" height="24.65"/>
            </clipPath>
<clipPath id="terminal-1935583991-line-33">
    <rect x="0" y="806.7" width="1464" height="24.65"/>
            </clipPath>
<clipPath id="terminal-1935583991-line-34">
    <rect x="0" y="831.1" width="1464" height="24.65"/>
            </clipPath>
    </defs>

    <rect fill="#292929" stroke="rgba(255,255,255,0.35)" stroke-width="1" x="1" y="1" width="1480" height="926.4" rx="8"/><text class="terminal-1935583991-title" fill="#c5c8c6" text-anchor="middle" x="740" y="27">FINNBAR</text>
            <g transform="translate(26,22)">
            <circle cx="0" cy="0" r="7" fill="#ff5f57"/>
            <circle cx="22" cy="0" r="7" fill="#febc2e"/>
            <circle cx="44" cy="0" r="7" fill="#28c840"/>
            </g>
        
    <g transform="translate(9, 41)" clip-path="url(#terminal-1935583991-clip-terminal)">
    <rect fill="#242f38" x="0" y="1.5" width="12.2" height="24.65" shape-rendering="crispEdges"/><rect fill="#242f38" x="12.2" y="1.5" width="12.2" height="24.65" shape-rendering="crispEdges"/><rect fill="#242f38" x="24.4" y="1.5" width="61" height="24.65" shape-rendering="crispEdges"/><rect fill="#242f38" x="85.4" y="1.5" width="12.2" height="24.65" shape-rendering="crispEdges"/><rect fill="#242f38" x="97.6" y="1.5" width="402.6" height="24.65" shape-rendering="crispEdges"/><rect fill="#242f38" x="500.2" y="1.5" width="85.4" height="24.65" shape-rendering="crispEdges"/><rect fill="#242f38" x="585.6" y="1.5" width="36.6" height="24.65" shape-rendering="crispEdges"/><rect fill="#242f38" x="622.2" y="1.5" width="305" height="24.65" shape-rendering="crispEdges"/><rect fill="#242f38" x="927.2" y="1.5" width="414.8" height="24.65" shape-rendering="crispEdges"/><rect fill="#2c363f" x="1342" y="1.5" width="12.2" height="24.65" shape-rendering="crispEdges"/><rect fill="#2c363f" x="1354.2" y="1.5" width="97.6" height="24.65" shape-rendering="crispEdges"/><rect fill="#2c363f" x="1451.8" y="1.5" width="12.2" height="24.65" shape-rendering="crispEdges"/><rect fill="#1e1e1e" x="0" y="25.9" width="12.2" height="24.65" shape-rendering="crispEdges"/><rect fill="#1e1e1e" x="12.2" y="25.9" width="329.4" height="24.65" shape-rendering="crispEdges"/><rect fill="#1e1e1e" x="341.6" y="25.9" width="12.2" height="24.65" shape-rendering="crispEdges"/><rect fill="#1e1e1e" x="353.8" y="25.9" width="12.2" height="24.65" shape-rendering="crispEdges"/><rect fill="#1e1e1e" x="366" y="25.9" width="1098" height="24.65" shape-rendering="crispEdges"/><rect fill="#1e1e1e" x="0" y="50.3" width="12.2" height="24.65" shape-rendering="crispEdges"/><rect fill="#1e1e1e" x="12.2" y="50.3" width="85.4" height="24.65" shape-rendering="crispEdges"/><rect fill="#1e1e1e" x="97.6" y="50.3" width="244" height="24.65" shape-rendering="crispEdges"/><rect fill="#1e1e1e" x="341.6" y="50.3" width="12.2" height="24.65" shape-rendering="crispEdges"/><rect fill="#1e1e1e" x="353.8" y="50.3" width="12.2" height="24.65" shape-rendering="crispEdges"/><rect fill="#1e1e1e" x="366" y="50.3" width="12.2" height="24.65" shape-rendering="crispEdges"/><rect fill="#1e1e1e" x="378.2" y="50.3" width="1073.6" height="24.65" shape-rendering="crispEdges"/><rect fill="#1e1e1e" x="1451.8" y="50.3" width="12.2" height="24.65" shape-rendering="crispEdges"/><rect fill="#1e1e1e" x="0" y="74.7" width="12.2" height="24.65" shape-rendering="crispEdges"/><rect fill="#272727" x="12.2" y="74.7" width="146.4" height="24.65" shape-rendering="crispEdges"/><rect fill="#272727" x="158.6" y="74.7" width="146.4" height="24.65" shape-rendering="crispEdges"/><rect fill="#272727" x="305" y="74.7" width="12.2" height="24.65" shape-rendering="crispEdges"/><rect fill="#272727" x="317.2" y="74.7" width="12.2" height="24.65" shape-rendering="crispEdges"/><rect fill="#272727" x="329.4" y="74.7" width="12.2" height="24.65" shape-rendering="crispEdges"/><rect fill="#1e1e1e" x="341.6" y="74.7" width="12.2" height="24.65" shape-rendering="crispEdges"/><rect fill="#1e1e1e" x="353.8" y="74.7" width="12.2" height="24.65" shape-rendering="crispEdges"/><rect fill="#1e1e1e" x="366" y="74.7" width="12.2" height="24.65" shape-rendering="crispEdges"/><rect fill="#1e1e1e" x="378.2" y="74.7" width="1073.6" height="24.65" shape-rendering="crispEdges"/><rect fill="#1e1e1e" x="1451.8" y="74.7" width="12.2" height="24.65" shape-rendering="crispEdges"/><rect fill="#1e1e1e" x="0" y="99.1" width="12.2" height="24.65" shape-rendering="crispEdges"/><rect fill="#1e1e1e" x="12.2" y="99.1" width="329.4" height="24.65" shape-rendering="crispEdges"/><rect fill="#1e1e1e" x="341.6" y="99.1" width="12.2" height="24.65" shape-rendering="crispEdges"/><rect fill="#1e1e1e" x="353.8" y="99.1" width="12.2" height="24.65" shape-rendering="crispEdges"/><rect fill="#1e1e1e" x="366" y="99.1" width="12.2" height="24.65" shape-rendering="crispEdges"/><rect fill="#1e1e1e" x="378.2" y="99.1" width="1073.6" height="24.65" shape-rendering="crispEdges"/><rect fill="#1e1e1e" x="1451.8" y="99.1" width="12.2" height="24.65" shape-rendering="crispEdges"/><rect fill="#1e1e1e" x="0" y="123.5" width="12.2" height="24.65" shape-rendering="crispEdges"/><rect fill="#1e1e1e" x="12.2" y="123.5" width="61" height="24.65" shape-rendering="crispEdges"/><rect fill="#1e1e1e" x="73.2" y="123.5" width="268.4" height="24.65" shape-rendering="crispEdges"/><rect fill="#1e1e1e" x="341.6" y="123.5" width="12.2" height="24.65" shape-rendering="crispEdges"/><rect fill="#1e1e1e" x="353.8" y="123.5" width="12.2" height="24.65" shape-rendering="crispEdges"/><rect fill="#1e1e1e" x="366" y="123.5" width="12.2" height="24.65" shape-rendering="crispEdges"/><rect fill="#1e1e1e" x="378.2" y="123.5" width="1073.6" height="24.65" shape-rendering="crispEdges"/><rect fill="#1e1e1e" x="1451.8" y="123.5" width="12.2" height="24.65" shape-rendering="crispEdges"/><rect fill="#1e1e1e" x="0" y="147.9" width="12.2" height="24.65" shape-rendering="crispEdges"/><rect fill="#1e1e1e" x="12.2" y="147.9" width="122" height="24.65" shape-rendering="crispEdges"/><rect fill="#1e1e1e" x="134.2" y="147.9" width="170.8" height="24.65" shape-rendering="crispEdges"/><rect fill="#1e1e1e" x="305" y="147.9" width="12.2" height="24.65" shape-rendering="crispEdges"/><rect fill="#1e1e1e" x="317.2" y="147.9" width="12.2" height="24.65" shape-rendering="crispEdges"/><rect fill="#1e1e1e" x="329.4" y="147.9" width="12.2" height="24.65" shape-rendering="crispEdges"/><rect fill="#1e1e1e" x="341.6" y="147.9" width="12.2" height="24.65" shape-rendering="crispEdges"/><rect fill="#1e1e1e" x="353.8" y="147.9" width="12.2" height="24.65" shape-rendering="crispEdges"/><rect fill="#1e1e1e" x="366" y="147.9" width="12.2" height="24.65" shape-rendering="crispEdges"/><rect fill="#1e1e1e" x="378.2" y="147.9" width="1073.6" height="24.65" shape-rendering="crispEdges"/><rect fill="#1e1e1e" x="1451.8" y="147.9" width="12.2" height="24.65" shape-rendering="crispEdges"/><rect fill="#1e1e1e" x="0" y="172.3" width="12.2" height="24.65" shape-rendering="crispEdges"/><rect fill="#1e1e1e" x="12.2" y="172.3" width="329.4" height="24.65" shape-rendering="crispEdges"/><rect fill="#1e1e1e" x="341.6" y="172.3" width="12.2" height="24.65" shape-rendering="crispEdges"/><rect fill="#1e1e1e" x="353.8" y="172.3" width="12.2" height="24.65" shape-rendering="crispEdges"/><rect fill="#1e1e1e" x="366" y="172.3" width="12.2" height="24.65" shape-rendering="crispEdges"/><rect fill="#1e1e1e" x="378.2" y="172.3" width="1073.6" height="24.65" shape-rendering="crispEdges"/><rect fill="#1e1e1e" x="1451.8" y="172.3" width="12.2" height="24.65" shape-rendering="crispEdges"/><rect fill="#1e1e1e" x="0" y="196.7" width="12.2" height="24.65" shape-rendering="crispEdges"/><rect fill="#1e1e1e" x="12.2" y="196.7" width="158.6" height="24.65" shape-rendering="crispEdges"/><rect fill="#1e1e1e" x="170.8" y="196.7" width="170.8" height="24.65" shape-rendering="crispEdges"/><rect fill="#1e1e1e" x="341.6" y="196.7" width="12.2" height="24.65" shape-rendering="crispEdges"/><rect fill="#1e1e1e" x="353.8" y="196.7" width="12.2" height="24.65" shape-rendering="crispEdges"/><rect fill="#1e1e1e" x="366" y="196.7" width="12.2" height="24.65" shape-rendering="crispEdges"/><rect fill="#1e1e1e" x="378.2" y="196.7" width="1073.6" height="24.65" shape-rendering="crispEdges"/><rect fill="#1e1e1e" x="1451.8" y="196.7" width="12.2" height="24.65" shape-rendering="crispEdges"/><rect fill="#1e1e1e" x="0" y="221.1" width="12.2" height="24.65" shape-rendering="crispEdges"/><rect fill="#292929" x="12.2" y="221.1" width="24.4" height="24.65" shape-rendering="crispEdges"/><rect fill="#292929" x="36.6" y="221.1" width="244" height="24.65" shape-rendering="crispEdges"/><rect fill="#292929" x="280.6" y="221.1" width="36.6" height="24.65" shape-rendering="crispEdges"/><rect fill="#292929" x="317.2" y="221.1" width="24.4" height="24.65" shape-rendering="crispEdges"/><rect fill="#1e1e1e" x="341.6" y="221.1" width="12.2" height="24.65" shape-rendering="crispEdges"/><rect fill="#1e1e1e" x="353.8" y="221.1" width="12.2" height="24.65" shape-rendering="crispEdges"/><rect fill="#1e1e1e" x="366" y="221.1" width="12.2" height="24.65" shape-rendering="crispEdges"/><rect fill="#1e1e1e" x="378.2" y="221.1" width="1073.6" height="24.65" shape-rendering="crispEdges"/><rect fill="#1e1e1e" x="1451.8" y="221.1" width="12.2" height="24.65" shape-rendering="crispEdges"/><rect fill="#1e1e1e" x="0" y="245.5" width="12.2" height="24.65" shape-rendering="crispEdges"/><rect fill="#292929" x="12.2" y="245.5" width="24.4" height="24.65" shape-rendering="crispEdges"/><rect fill="#292929" x="36.6" y="245.5" width="280.6" height="24.65" shape-rendering="crispEdges"/><rect fill="#292929" x="317.2" y="245.5" width="24.4" height="24.65" shape-rendering="crispEdges"/><rect fill="#1e1e1e" x="341.6" y="245.5" width="12.2" height="24.65" shape-rendering="crispEdges"/><rect fill="#1e1e1e" x="353.8" y="245.5" width="12.2" height="24.65" shape-rendering="crispEdges"/><rect fill="#1e1e1e" x="366" y="245.5" width="12.2" height="24.65" shape-rendering="crispEdges"/><rect fill="#1e1e1e" x="378.2" y="245.5" width="1073.6" height="24.65" shape-rendering="crispEdges"/><rect fill="#1e1e1e" x="1451.8" y="245.5" width="12.2" height="24.65" shape-rendering="crispEdges"/><rect fill="#1e1e1e" x="0" y="269.9" width="12.2" height="24.65" shape-rendering="crispEdges"/><rect fill="#292929" x="12.2" y="269.9" width="24.4" height="24.65" shape-rendering="crispEdges"/><rect fill="#292929" x="36.6" y="269.9" width="280.6" height="24.65" shape-rendering="crispEdges"/><rect fill="#292929" x="317.2" y="269.9" width="24.4" height="24.65" shape-rendering="crispEdges"/><rect fill="#1e1e1e" x="341.6" y="269.9" width="12.2" height="24.65" shape-rendering="crispEdges"/><rect fill="#1e1e1e" x="353.8" y="269.9" width="12.2" height="24.65" shape-rendering="crispEdges"/><rect fill="#1e1e1e" x="366" y="269.9" width="12.2" height="24.65" shape-rendering="crispEdges"/><rect fill="#1e1e1e" x="378.2" y="269.9" width="1073.6" height="24.65" shape-rendering="crispEdges"/><rect fill="#1e1e1e" x="1451.8" y="269.9" width="12.2" height="24.65" shape-rendering="crispEdges"/><rect fill="#1e1e1e" x="0" y="294.3" width="12.2" height="24.65" shape-rendering="crispEdges"/><rect fill="#1e1e1e" x="12.2" y="294.3" width="329.4" height="24.65" shape-rendering="crispEdges"/><rect fill="#1e1e1e" x="341.6" y="294.3" width="12.2" height="24.65" shape-rendering="crispEdges"/><rect fill="#1e1e1e" x="353.8" y="294.3" width="12.2" height="24.65" shape-rendering="crispEdges"/><rect fill="#1e1e1e" x="366" y="294.3" width="12.2" height="24.65" shape-rendering="crispEdges"/><rect fill="#1e1e1e" x="378.2" y="294.3" width="1073.6" height="24.65" shape-rendering="crispEdges"/><rect fill="#1e1e1e" x="1451.8" y="294.3" width="12.2" height="24.65" shape-rendering="crispEdges"/><rect fill="#1e1e1e" x="0" y="318.7" width="12.2" height="24.65" shape-rendering="crispEdges"/><rect fill="#00a651" x="12.2" y="318.7" width="329.4" height="24.65" shape-rendering="crispEdges"/><rect fill="#1e1e1e" x="341.6" y="318.7" width="12.2" height="24.65" shape-rendering="crispEdges"/><rect fill="#1e1e1e" x="353.8" y="318.7" width="12.2" height="24.65" shape-rendering="crispEdges"/><rect fill="#1e1e1e" x="366" y="318.7" width="12.2" height="24.65" shape-rendering="crispEdges"/><rect fill="#1e1e1e" x="378.2" y="318.7" width="1073.6" height="24.65" shape-rendering="crispEdges"/><rect fill="#1e1e1e" x="1451.8" y="318.7" width="12.2" height="24.65" shape-rendering="crispEdges"/><rect fill="#1e1e1e" x="0" y="343.1" width="12.2" height="24.65" shape-rendering="crispEdges"/><rect fill="#00a651" x="12.2" y="343.1" width="85.4" height="24.65" shape-rendering="crispEdges"/><rect fill="#00a651" x="97.6" y="343.1" width="158.6" height="24.65" shape-rendering="crispEdges"/><rect fill="#00a651" x="256.2" y="343.1" width="85.4" height="24.65" shape-rendering="crispEdges"/><rect fill="#1e1e1e" x="341.6" y="343.1" width="12.2" height="24.65" shape-rendering="crispEdges"/><rect fill="#1e1e1e" x="353.8" y="343.1" width="12.2" height="24.65" shape-rendering="crispEdges"/><rect fill="#1e1e1e" x="366" y="343.1" width="12.2" height="24.65" shape-rendering="crispEdges"/><rect fill="#1e1e1e" x="378.2" y="343.1" width="1073.6" height="24.65" shape-rendering="crispEdges"/><rect fill="#1e1e1e" x="1451.8" y="343.1" width="12.2" height="24.65" shape-rendering="crispEdges"/><rect fill="#1e1e1e" x="0" y="367.5" width="12.2" height="24.65" shape-rendering="crispEdges"/><rect fill="#00a651" x="12.2" y="367.5" width="329.4" height="24.65" shape-rendering="crispEdges"/><rect fill="#1e1e1e" x="341.6" y="367.5" width="12.2" height="24.65" shape-rendering="crispEdges"/><rect fill="#1e1e1e" x="353.8" y="367.5" width="12.2" height="24.65" shape-rendering="crispEdges"/><rect fill="#1e1e1e" x="366" y="367.5" width="12.2" height="24.65" shape-rendering="crispEdges"/><rect fill="#1e1e1e" x="378.2" y="367.5" width="1073.6" height="24.65" shape-rendering="crispEdges"/><rect fill="#1e1e1e" x="1451.8" y="367.5" width="12.2" height="24.65" shape-rendering="crispEdges"/><rect fill="#1e1e1e" x="0" y="391.9" width="12.2" height="24.65" shape-rendering="crispEdges"/><rect fill="#1e1e1e" x="12.2" y="391.9" width="329.4" height="24.65" shape-rendering="crispEdges"/><rect fill="#1e1e1e" x="341.6" y="391.9" width="12.2" height="24.65" shape-rendering="crispEdges"/><rect fill="#1e1e1e" x="353.8" y="391.9" width="12.2" height="24.65" shape-rendering="crispEdges"/><rect fill="#1e1e1e" x="366" y="391.9" width="12.2" height="24.65" shape-rendering="crispEdges"/><rect fill="#1e1e1e" x="378.2" y="391.9" width="305" height="24.65" shape-rendering="crispEdges"/><rect fill="#1e1e1e" x="683.2" y="391.9" width="463.6" height="24.65" shape-rendering="crispEdges"/><rect fill="#1e1e1e" x="1146.8" y="391.9" width="305" height="24.65" shape-rendering="crispEdges"/><rect fill="#1e1e1e" x="1451.8" y="391.9" width="12.2" height="24.65" shape-rendering="crispEdges"/><rect fill="#1e1e1e" x="0" y="416.3" width="12.2" height="24.65" shape-rendering="crispEdges"/><rect fill="#3e3e3e" x="12.2" y="416.3" width="329.4" height="24.65" shape-rendering="crispEdges"/><rect fill="#1e1e1e" x="341.6" y="416.3" width="12.2" height="24.65" shape-rendering="crispEdges"/><rect fill="#1e1e1e" x="353.8" y="416.3" width="12.2" height="24.65" shape-rendering="crispEdges"/><rect fill="#1e1e1e" x="366" y="416.3" width="12.2" height="24.65" shape-rendering="crispEdges"/><rect fill="#1e1e1e" x="378.2" y="416.3" width="305" height="24.65" shape-rendering="crispEdges"/><rect fill="#1e1e1e" x="683.2" y="416.3" width="402.6" height="24.65" shape-rendering="crispEdges"/><rect fill="#1e1e1e" x="1085.8" y="416.3" width="366" height="24.65" shape-rendering="crispEdges"/><rect fill="#1e1e1e" x="1451.8" y="416.3" width="12.2" height="24.65" shape-rendering="crispEdges"/><rect fill="#1e1e1e" x="0" y="440.7" width="12.2" height="24.65" shape-rendering="crispEdges"/><rect fill="#3e3e3e" x="12.2" y="440.7" width="122" height="24.65" shape-rendering="crispEdges"/><rect fill="#3e3e3e" x="134.2" y="440.7" width="85.4" height="24.65" shape-rendering="crispEdges"/><rect fill="#3e3e3e" x="219.6" y="440.7" width="122" height="24.65" shape-rendering="crispEdges"/><rect fill="#1e1e1e" x="341.6" y="440.7" width="12.2" height="24.65" shape-rendering="crispEdges"/><rect fill="#1e1e1e" x="353.8" y="440.7" width="12.2" height="24.65" shape-rendering="crispEdges"/><rect fill="#1e1e1e" x="366" y="440.7" width="12.2" height="24.65" shape-rendering="crispEdges"/><rect fill="#1e1e1e" x="378.2" y="440.7" width="305" height="24.65" shape-rendering="crispEdges"/><rect fill="#1e1e1e" x="683.2" y="440.7" width="134.2" height="24.65" shape-rendering="crispEdges"/><rect fill="#1e1e1e" x="817.4" y="440.7" width="268.4" height="24.65" shape-rendering="crispEdges"/><rect fill="#1e1e1e" x="1085.8" y="440.7" width="366" height="24.65" shape-rendering="crispEdges"/><rect fill="#1e1e1e" x="1451.8" y="440.7" width="12.2" height="24.65" shape-rendering="crispEdges"/><rect fill="#1e1e1e" x="0" y="465.1" width="12.2" height="24.65" shape-rendering="crispEdges"/><rect fill="#3e3e3e" x="12.2" y="465.1" width="329.4" height="24.65" shape-rendering="crispEdges"/><rect fill="#1e1e1e" x="341.6" y="465.1" width="12.2" height="24.65" shape-rendering="crispEdges"/><rect fill="#1e1e1e" x="353.8" y="465.1" width="12.2" height="24.65" shape-rendering="crispEdges"/><rect fill="#1e1e1e" x="366" y="465.1" width="12.2" height="24.65" shape-rendering="crispEdges"/><rect fill="#1e1e1e" x="378.2" y="465.1" width="1073.6" height="24.65" shape-rendering="crispEdges"/><rect fill="#1e1e1e" x="1451.8" y="465.1" width="12.2" height="24.65" shape-rendering="crispEdges"/><rect fill="#1e1e1e" x="0" y="489.5" width="12.2" height="24.65" shape-rendering="crispEdges"/><rect fill="#1e1e1e" x="12.2" y="489.5" width="329.4" height="24.65" shape-rendering="crispEdges"/><rect fill="#1e1e1e" x="341.6" y="489.5" width="12.2" height="24.65" shape-rendering="crispEdges"/><rect fill="#1e1e1e" x="353.8" y="489.5" width="12.2" height="24.65" shape-rendering="crispEdges"/><rect fill="#1e1e1e" x="366" y="489.5" width="12.2" height="24.65" shape-rendering="crispEdges"/><rect fill="#1e1e1e" x="378.2" y="489.5" width="1073.6" height="24.65" shape-rendering="crispEdges"/><rect fill="#1e1e1e" x="1451.8" y="489.5" width="12.2" height="24.65" shape-rendering="crispEdges"/><rect fill="#1e1e1e" x="0" y="513.9" width="12.2" height="24.65" shape-rendering="crispEdges"/><rect fill="#1e1e1e" x="12.2" y="513.9" width="329.4" height="24.65" shape-rendering="crispEdges"/><rect fill="#1e1e1e" x="341.6" y="513.9" width="12.2" height="24.65" shape-rendering="crispEdges"/><rect fill="#1e1e1e" x="353.8" y="513.9" width="12.2" height="24.65" shape-rendering="crispEdges"/><rect fill="#1e1e1e" x="366" y="513.9" width="12.2" height="24.65" shape-rendering="crispEdges"/><rect fill="#1e1e1e" x="378.2" y="513.9" width="1073.6" height="24.65" shape-rendering="crispEdges"/><rect fill="#1e1e1e" x="1451.8" y="513.9" width="12.2" height="24.65" shape-rendering="crispEdges"/><rect fill="#1e1e1e" x="0" y="538.3" width="12.2" height="24.65" shape-rendering="crispEdges"/><rect fill="#1e1e1e" x="12.2" y="538.3" width="329.4" height="24.65" shape-rendering="crispEdges"/><rect fill="#1e1e1e" x="341.6" y="538.3" width="12.2" height="24.65" shape-rendering="crispEdges"/><rect fill="#1e1e1e" x="353.8" y="538.3" width="12.2" height="24.65" shape-rendering="crispEdges"/><rect fill="#1e1e1e" x="366" y="538.3" width="12.2" height="24.65" shape-rendering="crispEdges"/><rect fill="#1e1e1e" x="378.2" y="538.3" width="1073.6" height="24.65" shape-rendering="crispEdges"/><rect fill="#1e1e1e" x="1451.8" y="538.3" width="12.2" height="24.65" shape-rendering="crispEdges"/><rect fill="#1e1e1e" x="0" y="562.7" width="12.2" height="24.65" shape-rendering="crispEdges"/><rect fill="#1e1e1e" x="12.2" y="562.7" width="329.4" height="24.65" shape-rendering="crispEdges"/><rect fill="#1e1e1e" x="341.6" y="562.7" width="12.2" height="24.65" shape-rendering="crispEdges"/><rect fill="#1e1e1e" x="353.8" y="562.7" width="12.2" height="24.65" shape-rendering="crispEdges"/><rect fill="#1e1e1e" x="366" y="562.7" width="12.2" height="24.65" shape-rendering="crispEdges"/><rect fill="#1e1e1e" x="378.2" y="562.7" width="1073.6" height="24.65" shape-rendering="crispEdges"/><rect fill="#1e1e1e" x="1451.8" y="562.7" width="12.2" height="24.65" shape-rendering="crispEdges"/><rect fill="#1e1e1e" x="0" y="587.1" width="12.2" height="24.65" shape-rendering="crispEdges"/><rect fill="#1e1e1e" x="12.2" y="587.1" width="329.4" height="24.65" shape-rendering="crispEdges"/><rect fill="#1e1e1e" x="341.6" y="587.1" width="12.2" height="24.65" shape-rendering="crispEdges"/><rect fill="#1e1e1e" x="353.8" y="587.1" width="12.2" height="24.65" shape-rendering="crispEdges"/><rect fill="#1e1e1e" x="366" y="587.1" width="12.2" height="24.65" shape-rendering="crispEdges"/><rect fill="#1e1e1e" x="378.2" y="587.1" width="1073.6" height="24.65" shape-rendering="crispEdges"/><rect fill="#1e1e1e" x="1451.8" y="587.1" width="12.2" height="24.65" shape-rendering="crispEdges"/><rect fill="#1e1e1e" x="0" y="611.5" width="12.2" height="24.65" shape-rendering="crispEdges"/><rect fill="#1e1e1e" x="12.2" y="611.5" width="329.4" height="24.65" shape-rendering="crispEdges"/><rect fill="#1e1e1e" x="341.6" y="611.5" width="12.2" height="24.65" shape-rendering="crispEdges"/><rect fill="#1e1e1e" x="353.8" y="611.5" width="12.2" height="24.65" shape-rendering="crispEdges"/><rect fill="#1e1e1e" x="366" y="611.5" width="12.2" height="24.65" shape-rendering="crispEdges"/><rect fill="#1e1e1e" x="378.2" y="611.5" width="1073.6" height="24.65" shape-rendering="crispEdges"/><rect fill="#1e1e1e" x="1451.8" y="611.5" width="12.2" height="24.65" shape-rendering="crispEdges"/><rect fill="#1e1e1e" x="0" y="635.9" width="12.2" height="24.65" shape-rendering="crispEdges"/><rect fill="#1e1e1e" x="12.2" y="635.9" width="329.4" height="24.65" shape-rendering="crispEdges"/><rect fill="#1e1e1e" x="341.6" y="635.9" width="12.2" height="24.65" shape-rendering="crispEdges"/><rect fill="#1e1e1e" x="353.8" y="635.9" width="12.2" height="24.65" shape-rendering="crispEdges"/><rect fill="#1e1e1e" x="366" y="635.9" width="12.2" height="24.65" shape-rendering="crispEdges"/><rect fill="#1e1e1e" x="378.2" y="635.9" width="1073.6" height="24.65" shape-rendering="crispEdges"/><rect fill="#1e1e1e" x="1451.8" y="635.9" width="12.2" height="24.65" shape-rendering="crispEdges"/><rect fill="#1e1e1e" x="0" y="660.3" width="12.2" height="24.65" shape-rendering="crispEdges"/><rect fill="#1e1e1e" x="12.2" y="660.3" width="329.4" height="24.65" shape-rendering="crispEdges"/><rect fill="#1e1e1e" x="341.6" y="660.3" width="12.2" height="24.65" shape-rendering="crispEdges"/><rect fill="#1e1e1e" x="353.8" y="660.3" width="12.2" height="24.65" shape-rendering="crispEdges"/><rect fill="#1e1e1e" x="366" y="660.3" width="12.2" height="24.65" shape-rendering="crispEdges"/><rect fill="#1e1e1e" x="378.2" y="660.3" width="1073.6" height="24.65" shape-rendering="crispEdges"/><rect fill="#1e1e1e" x="1451.8" y="660.3" width="12.2" height="24.65" shape-rendering="crispEdges"/><rect fill="#1e1e1e" x="0" y="684.7" width="12.2" height="24.65" shape-rendering="crispEdges"/><rect fill="#1e1e1e" x="12.2" y="684.7" width="329.4" height="24.65" shape-rendering="crispEdges"/><rect fill="#1e1e1e" x="341.6" y="684.7" width="12.2" height="24.65" shape-rendering="crispEdges"/><rect fill="#1e1e1e" x="353.8" y="684.7" width="12.2" height="24.65" shape-rendering="crispEdges"/><rect fill="#1e1e1e" x="366" y="684.7" width="12.2" height="24.65" shape-rendering="crispEdges"/><rect fill="#1e1e1e" x="378.2" y="684.7" width="1073.6" height="24.65" shape-rendering="crispEdges"/><rect fill="#1e1e1e" x="1451.8" y="684.7" width="12.2" height="24.65" shape-rendering="crispEdges"/><rect fill="#1e1e1e" x="0" y="709.1" width="12.2" height="24.65" shape-rendering="crispEdges"/><rect fill="#1e1e1e" x="12.2" y="709.1" width="329.4" height="24.65" shape-rendering="crispEdges"/><rect fill="#1e1e1e" x="341.6" y="709.1" width="12.2" height="24.65" shape-rendering="crispEdges"/><rect fill="#1e1e1e" x="353.8" y="709.1" width="12.2" height="24.65" shape-rendering="crispEdges"/><rect fill="#1e1e1e" x="366" y="709.1" width="12.2" height="24.65" shape-rendering="crispEdges"/><rect fill="#1e1e1e" x="378.2" y="709.1" width="1073.6" height="24.65" shape-rendering="crispEdges"/><rect fill="#1e1e1e" x="1451.8" y="709.1" width="12.2" height="24.65" shape-rendering="crispEdges"/><rect fill="#1e1e1e" x="0" y="733.5" width="12.2" height="24.65" shape-rendering="crispEdges"/><rect fill="#1e1e1e" x="12.2" y="733.5" width="329.4" height="24.65" shape-rendering="crispEdges"/><rect fill="#1e1e1e" x="341.6" y="733.5" width="12.2" height="24.65" shape-rendering="crispEdges"/><rect fill="#1e1e1e" x="353.8" y="733.5" width="12.2" height="24.65" shape-rendering="crispEdges"/><rect fill="#1e1e1e" x="366" y="733.5" width="12.2" height="24.65" shape-rendering="crispEdges"/><rect fill="#1e1e1e" x="378.2" y="733.5" width="1073.6" height="24.65" shape-rendering="crispEdges"/><rect fill="#1e1e1e" x="1451.8" y="733.5" width="12.2" height="24.65" shape-rendering="crispEdges"/><rect fill="#1e1e1e" x="0" y="757.9" width="12.2" height="24.65" shape-rendering="crispEdges"/><rect fill="#1e1e1e" x="12.2" y="757.9" width="329.4" height="24.65" shape-rendering="crispEdges"/><rect fill="#1e1e1e" x="341.6" y="757.9" width="12.2" height="24.65" shape-rendering="crispEdges"/><rect fill="#1e1e1e" x="353.8" y="757.9" width="12.2" height="24.65" shape-rendering="crispEdges"/><rect fill="#1e1e1e" x="366" y="757.9" width="12.2" height="24.65" shape-rendering="crispEdges"/><rect fill="#1e1e1e" x="378.2" y="757.9" width="1073.6" height="24.65" shape-rendering="crispEdges"/><rect fill="#1e1e1e" x="1451.8" y="757.9" width="12.2" height="24.65" shape-rendering="crispEdges"/><rect fill="#1e1e1e" x="0" y="782.3" width="12.2" height="24.65" shape-rendering="crispEdges"/><rect fill="#1e1e1e" x="12.2" y="782.3" width="329.4" height="24.65" shape-rendering="crispEdges"/><rect fill="#1e1e1e" x="341.6" y="782.3" width="12.2" height="24.65" shape-rendering="crispEdges"/><rect fill="#1e1e1e" x="353.8" y="782.3" width="12.2" height="24.65" shape-rendering="crispEdges"/><rect fill="#1e1e1e" x="366" y="782.3" width="12.2" height="24.65" shape-rendering="crispEdges"/><rect fill="#1e1e1e" x="378.2" y="782.3" width="1073.6" height="24.65" shape-rendering="crispEdges"/><rect fill="#1e1e1e" x="1451.8" y="782.3" width="12.2" height="24.65" shape-rendering="crispEdges"/><rect fill="#1e1e1e" x="0" y="806.7" width="12.2" height="24.65" shape-rendering="crispEdges"/><rect fill="#1e1e1e" x="12.2" y="806.7" width="329.4" height="24.65" shape-rendering="crispEdges"/><rect fill="#1e1e1e" x="341.6" y="806.7" width="12.2" height="24.65" shape-rendering="crispEdges"/><rect fill="#1e1e1e" x="353.8" y="806.7" width="12.2" height="24.65" shape-rendering="crispEdges"/><rect fill="#1e1e1e" x="366" y="806.7" width="12.2" height="24.65" shape-rendering="crispEdges"/><rect fill="#1e1e1e" x="378.2" y="806.7" width="1073.6" height="24.65" shape-rendering="crispEdges"/><rect fill="#1e1e1e" x="1451.8" y="806.7" width="12.2" height="24.65" shape-rendering="crispEdges"/><rect fill="#1e1e1e" x="0" y="831.1" width="12.2" height="24.65" shape-rendering="crispEdges"/><rect fill="#1e1e1e" x="12.2" y="831.1" width="329.4" height="24.65" shape-rendering="crispEdges"/><rect fill="#1e1e1e" x="341.6" y="831.1" width="12.2" height="24.65" shape-rendering="crispEdges"/><rect fill="#1e1e1e" x="353.8" y="831.1" width="12.2" height="24.65" shape-rendering="crispEdges"/><rect fill="#1e1e1e" x="366" y="831.1" width="1098" height="24.65" shape-rendering="crispEdges"/><rect fill="#242f38" x="0" y="855.5" width="48.8" height="24.65" shape-rendering="crispEdges"/><rect fill="#242f38" x="48.8" y="855.5" width="61" height="24.65" shape-rendering="crispEdges"/><rect fill="#242f38" x="109.8" y="855.5" width="48.8" height="24.65" shape-rendering="crispEdges"/><rect fill="#242f38" x="158.6" y="855.5" width="146.4" height="24.65" shape-rendering="crispEdges"/><rect fill="#242f38" x="305" y="855.5" width="48.8" height="24.65" shape-rendering="crispEdges"/><rect fill="#242f38" x="353.8" y="855.5" width="73.2" height="24.65" shape-rendering="crispEdges"/><rect fill="#242f38" x="427" y="855.5" width="890.6" height="24.65" shape-rendering="crispEdges"/><rect fill="#242f38" x="1317.6" y="855.5" width="12.2" height="24.65" shape-rendering="crispEdges"/><rect fill="#242f38" x="1329.8" y="855.5" width="24.4" height="24.65" shape-rendering="crispEdges"/><rect fill="#242f38" x="1354.2" y="855.5" width="97.6" height="24.65" shape-rendering="crispEdges"/><rect fill="#242f38" x="1451.8" y="855.5" width="12.2" height="24.65" shape-rendering="crispEdges"/>
    <g class="terminal-1935583991-matrix">
    <text class="terminal-1935583991-r2" x="12.2" y="20" textLength="12.2" clip-path="url(#terminal-1935583991-line-0)">⭘</text><text class="terminal-1935583991-r2" x="500.2" y="20" textLength="85.4" clip-path="url(#terminal-1935583991-line-0)">FINNBAR</text><text class="terminal-1935583991-r3" x="585.6" y="20" textLength="36.6" clip-path="url(#terminal-1935583991-line-0)">&#160;—&#160;</text><text class="terminal-1935583991-r3" x="622.2" y="20" textLength="305" clip-path="url(#terminal-1935583991-line-0)">IKEA&#160;Availability&#160;Checker</text><text class="terminal-1935583991-r4" x="1354.2" y="20" textLength="97.6" clip-path="url(#terminal-1935583991-line-0)">20:50:28</text><text class="terminal-1935583991-r1" x="1464" y="20" textLength="12.2" clip-path="url(#terminal-1935583991-line-0)">
</text><text class="terminal-1935583991-r5" x="353.8" y="44.4" textLength="12.2" clip-path="url(#terminal-1935583991-line-1)">▎</text><text class="terminal-1935583991-r1" x="1464" y="44.4" textLength="12.2" clip-path="url(#terminal-1935583991-line-1)">
</text><text class="terminal-1935583991-r6" x="12.2" y="68.8" textLength="85.4" clip-path="url(#terminal-1935583991-line-2)">Country</text><text class="terminal-1935583991-r5" x="353.8" y="68.8" textLength="12.2" clip-path="url(#terminal-1935583991-line-2)">▎</text><text class="terminal-1935583991-r1" x="1464" y="68.8" textLength="12.2" clip-path="url(#terminal-1935583991-line-2)">
</text><text class="terminal-1935583991-r2" x="12.2" y="93.2" textLength="146.4" clip-path="url(#terminal-1935583991-line-3)">AT&#160;–&#160;Austria</text><text class="terminal-1935583991-r8" x="317.2" y="93.2" textLength="12.2" clip-path="url(#terminal-1935583991-line-3)">▼</text><text class="terminal-1935583991-r5" x="353.8" y="93.2" textLength="12.2" clip-path="url(#terminal-1935583991-line-3)">▎</text><text class="terminal-1935583991-r1" x="1464" y="93.2" textLength="12.2" clip-path="url(#terminal-1935583991-line-3)">
</text><text class="terminal-1935583991-r5" x="353.8" y="117.6" textLength="12.2" clip-path="url(#terminal-1935583991-line-4)">▎</text><text class="terminal-1935583991-r1" x="1464" y="117.6" textLength="12.2" clip-path="url(#terminal-1935583991-line-4)">
</text><text class="terminal-1935583991-r6" x="12.2" y="142" textLength="61" clip-path="url(#terminal-1935583991-line-5)">Store</text><text class="terminal-1935583991-r5" x="353.8" y="142" textLength="12.2" clip-path="url(#terminal-1935583991-line-5)">▎</text><text class="terminal-1935583991-r1" x="1464" y="142" textLength="12.2" clip-path="url(#terminal-1935583991-line-5)">
</text><text class="terminal-1935583991-r9" x="12.2" y="166.4" textLength="122" clip-path="url(#terminal-1935583991-line-6)">All&#160;stores</text><text class="terminal-1935583991-r9" x="317.2" y="166.4" textLength="12.2" clip-path="url(#terminal-1935583991-line-6)">▼</text><text class="terminal-1935583991-r5" x="353.8" y="166.4" textLength="12.2" clip-path="url(#terminal-1935583991-line-6)">▎</text><text class="terminal-1935583991-r1" x="1464" y="166.4" textLength="12.2" clip-path="url(#terminal-1935583991-line-6)">
</text><text class="terminal-1935583991-r5" x="353.8" y="190.8" textLength="12.2" clip-path="url(#terminal-1935583991-line-7)">▎</text><text class="terminal-1935583991-r1" x="1464" y="190.8" textLength="12.2" clip-path="url(#terminal-1935583991-line-7)">
</text><text class="terminal-1935583991-r6" x="12.2" y="215.2" textLength="158.6" clip-path="url(#terminal-1935583991-line-8)">Product&#160;ID(s)</text><text class="terminal-1935583991-r5" x="353.8" y="215.2" textLength="12.2" clip-path="url(#terminal-1935583991-line-8)">▎</text><text class="terminal-1935583991-r1" x="1464" y="215.2" textLength="12.2" clip-path="url(#terminal-1935583991-line-8)">
</text><text class="terminal-1935583991-r10" x="36.6" y="239.6" textLength="244" clip-path="url(#terminal-1935583991-line-9)">306.043.67,&#160;10606640</text><text class="terminal-1935583991-r5" x="353.8" y="239.6" textLength="12.2" clip-path="url(#terminal-1935583991-line-9)">▎</text><text class="terminal-1935583991-r1" x="1464" y="239.6" textLength="12.2" clip-path="url(#terminal-1935583991-line-9)">
</text><text class="terminal-1935583991-r5" x="353.8" y="264" textLength="12.2" clip-path="url(#terminal-1935583991-line-10)">▎</text><text class="terminal-1935583991-r1" x="1464" y="264" textLength="12.2" clip-path="url(#terminal-1935583991-line-10)">
</text><text class="terminal-1935583991-r5" x="353.8" y="288.4" textLength="12.2" clip-path="url(#terminal-1935583991-line-11)">▎</text><text class="terminal-1935583991-r1" x="1464" y="288.4" textLength="12.2" clip-path="url(#terminal-1935583991-line-11)">
</text><text class="terminal-1935583991-r5" x="353.8" y="312.8" textLength="12.2" clip-path="url(#terminal-1935583991-line-12)">▎</text><text class="terminal-1935583991-r1" x="1464" y="312.8" textLength="12.2" clip-path="url(#terminal-1935583991-line-12)">
</text><text class="terminal-1935583991-r5" x="353.8" y="337.2" textLength="12.2" clip-path="url(#terminal-1935583991-line-13)">▎</text><text class="terminal-1935583991-r1" x="1464" y="337.2" textLength="12.2" clip-path="url(#terminal-1935583991-line-13)">
</text><text class="terminal-1935583991-r11" x="97.6" y="361.6" textLength="158.6" clip-path="url(#terminal-1935583991-line-14)">&#160;Check&#160;Stock&#160;</text><text class="terminal-1935583991-r5" x="353.8" y="361.6" textLength="12.2" clip-path="url(#terminal-1935583991-line-14)">▎</text><text class="terminal-1935583991-r1" x="1464" y="361.6" textLength="12.2" clip-path="url(#terminal-1935583991-line-14)">
</text><text class="terminal-1935583991-r5" x="353.8" y="386" textLength="12.2" clip-path="url(#terminal-1935583991-line-15)">▎</text><text class="terminal-1935583991-r1" x="1464" y="386" textLength="12.2" clip-path="url(#terminal-1935583991-line-15)">
</text><text class="terminal-1935583991-r5" x="353.8" y="410.4" textLength="12.2" clip-path="url(#terminal-1935583991-line-16)">▎</text><text class="terminal-1935583991-r7" x="683.2" y="410.4" textLength="463.6" clip-path="url(#terminal-1935583991-line-16)">Select&#160;a&#160;country&#160;and&#160;store&#160;(optional),</text><text class="terminal-1935583991-r1" x="1464" y="410.4" textLength="12.2" clip-path="url(#terminal-1935583991-line-16)">
</text><text class="terminal-1935583991-r5" x="353.8" y="434.8" textLength="12.2" clip-path="url(#terminal-1935583991-line-17)">▎</text><text class="terminal-1935583991-r7" x="683.2" y="434.8" textLength="402.6" clip-path="url(#terminal-1935583991-line-17)">then&#160;enter&#160;a&#160;product&#160;ID&#160;and&#160;press</text><text class="terminal-1935583991-r1" x="1464" y="434.8" textLength="12.2" clip-path="url(#terminal-1935583991-line-17)">
</text><text class="terminal-1935583991-r12" x="134.2" y="459.2" textLength="85.4" clip-path="url(#terminal-1935583991-line-18)">&#160;Clear&#160;</text><text class="terminal-1935583991-r5" x="353.8" y="459.2" textLength="12.2" clip-path="url(#terminal-1935583991-line-18)">▎</text><text class="terminal-1935583991-r13" x="683.2" y="459.2" textLength="134.2" clip-path="url(#terminal-1935583991-line-18)">Check&#160;Stock</text><text class="terminal-1935583991-r7" x="817.4" y="459.2" textLength="268.4" clip-path="url(#terminal-1935583991-line-18)">&#160;to&#160;view&#160;availability.</text><text class="terminal-1935583991-r1" x="1464" y="459.2" textLength="12.2" clip-path="url(#terminal-1935583991-line-18)">
</text><text class="terminal-1935583991-r5" x="353.8" y="483.6" textLength="12.2" clip-path="url(#terminal-1935583991-line-19)">▎</text><text class="terminal-1935583991-r1" x="1464" y="483.6" textLength="12.2" clip-path="url(#terminal-1935583991-line-19)">
</text><text class="terminal-1935583991-r5" x="353.8" y="508" textLength="12.2" clip-path="url(#terminal-1935583991-line-20)">▎</text><text class="terminal-1935583991-r1" x="1464" y="508" textLength="12.2" clip-path="url(#terminal-1935583991-line-20)">
</text><text class="terminal-1935583991-r5" x="353.8" y="532.4" textLength="12.2" clip-path="url(#terminal-1935583991-line-21)">▎</text><text class="terminal-1935583991-r1" x="1464" y="532.4" textLength="12.2" clip-path="url(#terminal-1935583991-line-21)">
</text><text class="terminal-1935583991-r5" x="353.8" y="556.8" textLength="12.2" clip-path="url(#terminal-1935583991-line-22)">▎</text><text class="terminal-1935583991-r1" x="1464" y="556.8" textLength="12.2" clip-path="url(#terminal-1935583991-line-22)">
</text><text class="terminal-1935583991-r5" x="353.8" y="581.2" textLength="12.2" clip-path="url(#terminal-1935583991-line-23)">▎</text><text class="terminal-1935583991-r1" x="1464" y="581.2" textLength="12.2" clip-path="url(#terminal-1935583991-line-23)">
</text><text class="terminal-1935583991-r5" x="353.8" y="605.6" textLength="12.2" clip-path="url(#terminal-1935583991-line-24)">▎</text><text class="terminal-1935583991-r1" x="1464" y="605.6" textLength="12.2" clip-path="url(#terminal-1935583991-line-24)">
</text><text class="terminal-1935583991-r5" x="353.8" y="630" textLength="12.2" clip-path="url(#terminal-1935583991-line-25)">▎</text><text class="terminal-1935583991-r1" x="1464" y="630" textLength="12.2" clip-path="url(#terminal-1935583991-line-25)">
</text><text class="terminal-1935583991-r5" x="353.8" y="654.4" textLength="12.2" clip-path="url(#terminal-1935583991-line-26)">▎</text><text class="terminal-1935583991-r1" x="1464" y="654.4" textLength="12.2" clip-path="url(#terminal-1935583991-line-26)">
</text><text class="terminal-1935583991-r5" x="353.8" y="678.8" textLength="12.2" clip-path="url(#terminal-1935583991-line-27)">▎</text><text class="terminal-1935583991-r1" x="1464" y="678.8" textLength="12.2" clip-path="url(#terminal-1935583991-line-27)">
</text><text class="terminal-1935583991-r5" x="353.8" y="703.2" textLength="12.2" clip-path="url(#terminal-1935583991-line-28)">▎</text><text class="terminal-1935583991-r1" x="1464" y="703.2" textLength="12.2" clip-path="url(#terminal-1935583991-line-28)">
</text><text class="terminal-1935583991-r5" x="353.8" y="727.6" textLength="12.2" clip-path="url(#terminal-1935583991-line-29)">▎</text><text class="terminal-1935583991-r1" x="1464" y="727.6" textLength="12.2" clip-path="url(#terminal-1935583991-line-29)">
</text><text class="terminal-1935583991-r5" x="353.8" y="752" textLength="12.2" clip-path="url(#terminal-1935583991-line-30)">▎</text><text class="terminal-1935583991-r1" x="1464" y="752" textLength="12.2" clip-path="url(#terminal-1935583991-line-30)">
</text><text class="terminal-1935583991-r5" x="353.8" y="776.4" textLength="12.2" clip-path="url(#terminal-1935583991-line-31)">▎</text><text class="terminal-1935583991-r1" x="1464" y="776.4" textLength="12.2" clip-path="url(#terminal-1935583991-line-31)">
</text><text class="terminal-1935583991-r5" x="353.8" y="800.8" textLength="12.2" clip-path="url(#terminal-1935583991-line-32)">▎</text><text class="terminal-1935583991-r1" x="1464" y="800.8" textLength="12.2" clip-path="url(#terminal-1935583991-line-32)">
</text><text class="terminal-1935583991-r5" x="353.8" y="825.2" textLength="12.2" clip-path="url(#terminal-1935583991-line-33)">▎</text><text class="terminal-1935583991-r1" x="1464" y="825.2" textLength="12.2" clip-path="url(#terminal-1935583991-line-33)">
</text><text class="terminal-1935583991-r5" x="353.8" y="849.6" textLength="12.2" clip-path="url(#terminal-1935583991-line-34)">▎</text><text class="terminal-1935583991-r1" x="1464" y="849.6" textLength="12.2" clip-path="url(#terminal-1935583991-line-34)">
</text><text class="terminal-1935583991-r14" x="0" y="874" textLength="48.8" clip-path="url(#terminal-1935583991-line-35)">&#160;^q&#160;</text><text class="terminal-1935583991-r2" x="48.8" y="874" textLength="61" clip-path="url(#terminal-1935583991-line-35)">Quit&#160;</text><text class="terminal-1935583991-r14" x="109.8" y="874" textLength="48.8" clip-path="url(#terminal-1935583991-line-35)">&#160;^k&#160;</text><text class="terminal-1935583991-r2" x="158.6" y="874" textLength="146.4" clip-path="url(#terminal-1935583991-line-35)">Check&#160;Stock&#160;</text><text class="terminal-1935583991-r14" x="305" y="874" textLength="48.8" clip-path="url(#terminal-1935583991-line-35)">&#160;^x&#160;</text><text class="terminal-1935583991-r2" x="353.8" y="874" textLength="73.2" clip-path="url(#terminal-1935583991-line-35)">Clear&#160;</text><text class="terminal-1935583991-r15" x="1317.6" y="874" textLength="12.2" clip-path="url(#terminal-1935583991-line-35)">▏</text><text class="terminal-1935583991-r14" x="1329.8" y="874" textLength="24.4" clip-path="url(#terminal-1935583991-line-35)">^p</text><text class="terminal-1935583991-r2" x="1354.2" y="874" textLength="97.6" clip-path="url(#terminal-1935583991-line-35)">&#160;palette</text>
    </g>
    </g>
</svg>
